<svg width="32" height="32" viewBox="0 0 32 32">
     <circle cx="7.1" cy="8.3" r="6" fill="#ffd700"/>
      <path
        d="M 22.3 15.2 C 22.3 10.7 18 6.6 13.5 6.6 C 10.4 6.6 7.7 9.1 7.7 12.3 C 7.7 12.3 7.7 12.3 7.7 12.3 C 5.5 12.3 3.7 14.2 3.7 16.4 C 3.7 18.6 5.5 20.5 7.7 20.5 H 22.3 C 24.6 20.5 26.4 18.6 26.4 16.4 C 26.4 14.2 24.6 12.3 22.3 12.3 Z"
        fill="#b0c4de"
        stroke="#708090"
        stroke-width="2"
    />
 <line x1="16" y1="28" x2="12" y2="20" stroke="#ffffff" stroke-width="1"  stroke-dasharray="2,2"/>
    <line x1="20" y1="28" x2="16" y2="20" stroke="#ffffff" stroke-width="1"  stroke-dasharray="2,2"/>
    <line x1="24" y1="28" x2="20" y2="20" stroke="#ffffff" stroke-width="1"  stroke-dasharray="2,2"/>
</svg>
